<?xml version="1.0" encoding="UTF-8"?>
<svg id="Ebene_2" data-name="Ebene 2" xmlns="http://www.w3.org/2000/svg" viewBox="0 0 281.65 84.36">
  <defs>
    <style>
      .cls-1, .cls-2, .cls-3, .cls-4 {
        fill: #fff;
      }

      .cls-5 {
        fill: #9dc31b;
      }

      .cls-6 {
        fill: #ffeb5a;
      }

      .cls-2, .cls-3, .cls-4 {
        font-family: Arial-BoldMT, Arial;
        font-weight: 700;
      }

      .cls-2, .cls-4 {
        font-size: 11.78px;
      }

      .cls-7, .cls-4 {
        opacity: .65;
      }

      .cls-8 {
        fill: #02a54c;
      }

      .cls-9 {
        fill: #f2bb0a;
      }

      .cls-10 {
        fill: #ffcb39;
      }

      .cls-3 {
        font-size: 19.07px;
      }

      .cls-11 {
        fill: #e54100;
      }

      .cls-12 {
        fill: #ffd56c;
      }
    </style>
  </defs>
  <g id="Layer_1" data-name="Layer 1">
    <polygon class="cls-8" points="102.37 22.92 42.95 60.63 23.08 73.24 .04 60.62 0 60.59 45.12 31.96 59.38 22.92 102.26 22.92 102.34 22.85 102.37 22.92"/>
    <polygon class="cls-5" points="145.47 22.92 66.18 73.24 43.17 60.63 43.1 60.59 102.48 22.92 102.57 22.85 102.6 22.92 145.47 22.92"/>
    <polygon class="cls-6" points="188.7 22.92 129.31 60.6 109.41 73.24 86.33 60.59 145.71 22.92 188.67 22.92 188.69 22.9 188.7 22.92"/>
    <polygon class="cls-11" points="281.65 22.92 202.36 73.24 179.29 60.6 179.27 60.59 238.65 22.92 238.67 22.9 238.68 22.92 281.65 22.92"/>
    <polygon class="cls-1" points="224.61 22.92 240.49 21.93 179.53 60.62 142.11 84.36 118.01 70.56 117.97 70.59 117.16 70.07 114.94 68.8 115.06 68.73 109.67 65.27 100.73 59.93 100.73 31.29 129.77 50.13 174.56 22.33 174.56 30.96 187.25 22.92 224.61 22.92"/>
    <g>
      <polygon class="cls-9" points="226.63 28.87 224.61 30.16 142.08 82.53 117.97 68.73 173 33.81 226.28 0 226.63 28.87 226.63 28.87"/>
      <polygon class="cls-10" points="173 33.81 173 25.15 110.49 63.94 117.97 68.73 173 33.81"/>
      <polygon class="cls-12" points="110.49 63.94 102.3 59.04 102.3 34.18 129.76 51.98 110.49 63.94"/>
    </g>
    <g class="cls-7">
      <text class="cls-2" transform="translate(47.45 45.19)"><tspan x="0" y="0">A</tspan></text>
    </g>
    <g class="cls-7">
      <text class="cls-2" transform="translate(87.99 45.19)"><tspan x="0" y="0">B</tspan></text>
    </g>
    <g class="cls-7">
      <text class="cls-2" transform="translate(131.94 45.19)"><tspan x="0" y="0">C</tspan></text>
    </g>
    <text class="cls-3" transform="translate(177.72 48.05)"><tspan x="0" y="0">D</tspan></text>
    <text class="cls-4" transform="translate(225.89 45.19)"><tspan x="0" y="0">E</tspan></text>
    <polygon class="cls-8" points="141.38 40.68 141.41 40.74 141.29 40.74 141.38 40.68"/>
    <polygon class="cls-8" points="227.67 40.74 227.64 40.74 227.66 40.72 227.67 40.74"/>
  </g>
</svg>